<svg width="78" height="43" viewBox="0 0 78 43" fill="none" xmlns="http://www.w3.org/2000/svg">
<path d="M77.5456 4.40281C77.5736 3.42546 77.2045 2.47872 76.5222 1.77828C75.8399 1.07789 74.903 0.684193 73.9252 0.686785H4.82897C3.84688 0.683769 2.90608 1.0835 2.22682 1.79246C1.55486 2.47993 1.19003 3.4099 1.21629 4.3709C1.21629 4.84816 0.635227 16.1566 0.826468 20.0469H0.826037C0.843698 21.9081 1.26454 23.7435 2.05974 25.4264C2.71232 26.8349 3.52379 28.6096 5.59312 28.6096H73.2007C75.2618 28.6096 76.0815 26.8667 76.7341 25.4264C77.5361 23.7457 77.96 21.9093 77.9755 20.0469C78.119 16.2193 77.5857 5.21337 77.5457 4.40178L77.5456 4.40281ZM11.7365 26.9861L11.1313 23.7632H67.6315L67.003 26.9464L11.7365 26.9861ZM76.3845 19.9754C76.3806 21.5915 76.0274 23.1874 75.3503 24.6546L75.3107 24.7261C74.6025 26.2621 74.1648 26.9861 73.2099 26.9861H68.6497L69.2226 24.1053C69.3281 23.6208 69.2015 23.1146 68.8806 22.7369C68.5661 22.3759 68.11 22.1696 67.6314 22.1718H11.1313C10.6377 22.1713 10.1699 22.3936 9.85845 22.7765C9.55779 23.1491 9.44063 23.6372 9.54013 24.1054L10.1053 26.9862H5.56137C4.60641 26.9862 4.16877 26.2621 3.42059 24.6628V24.6624C2.74562 23.1918 2.39284 21.5938 2.38595 19.9755C2.20288 16.1556 2.76802 4.56965 2.77578 4.37888H2.77621C2.75209 3.82839 2.95669 3.29297 3.34091 2.89839C3.72987 2.49523 4.26874 2.27037 4.82912 2.2777H73.9254C74.4776 2.27597 75.0065 2.50039 75.3894 2.89839C75.7762 3.29123 75.9808 3.82794 75.9546 4.37888V4.45038C75.9623 4.5697 76.5275 16.1555 76.384 19.9753L76.3845 19.9754Z" fill="white"/>
<path d="M73.7346 13.0999H5.02868C4.58889 13.0999 4.23267 13.4561 4.23267 13.8959C4.23267 14.3352 4.58889 14.6914 5.02868 14.6914H73.7346C74.1744 14.6914 74.5306 14.3352 74.5306 13.8959C74.5306 13.4561 74.1744 13.0999 73.7346 13.0999Z" fill="white"/>
<path d="M45.5088 18.1061H33.2545C32.8152 18.1061 32.4585 18.4623 32.4585 18.9017C32.4585 19.341 32.8152 19.6972 33.2545 19.6972H45.5088C45.9482 19.6972 46.3048 19.341 46.3048 18.9017C46.3048 18.4623 45.9482 18.1061 45.5088 18.1061Z" fill="white"/>
<path d="M17.442 33.9728C17.2339 33.9357 17.0199 33.9831 16.8467 34.1037C16.6735 34.2247 16.5555 34.4095 16.5189 34.6176C15.7582 37.4519 13.6277 39.7171 10.8447 40.6492C10.6475 40.7242 10.4881 40.8745 10.4015 41.0671C10.3149 41.2596 10.3085 41.4784 10.3834 41.6757C10.5027 41.9845 10.8004 42.1874 11.1312 42.1853C11.2264 42.1861 11.3207 42.1698 11.4099 42.1375C14.7227 41.0214 17.2386 38.2952 18.0864 34.904C18.1256 34.6946 18.0799 34.4784 17.9584 34.3035C17.8374 34.1286 17.6513 34.0097 17.442 33.9727L17.442 33.9728Z" fill="white"/>
<path d="M29.2671 33.5439C28.8368 33.4663 28.4246 33.7506 28.344 34.1805C27.5859 37.0177 25.4551 39.2861 22.6703 40.22C22.3171 40.3595 22.1116 40.7287 22.1797 41.1021C22.2473 41.476 22.5695 41.7496 22.949 41.756C23.0464 41.7556 23.1433 41.7396 23.2355 41.7082C26.5458 40.5844 29.0599 37.8574 29.912 34.467C29.949 34.2589 29.9016 34.0449 29.781 33.8717C29.66 33.6986 29.4752 33.5805 29.2671 33.5439L29.2671 33.5439Z" fill="white"/>
<path d="M67.918 41.0797C65.1277 40.1588 62.9929 37.8887 62.2439 35.0476C62.2073 34.84 62.0893 34.6552 61.9161 34.5342C61.7429 34.4131 61.5289 34.3662 61.3208 34.4032C61.1132 34.4398 60.9284 34.5579 60.8074 34.731C60.6863 34.9042 60.6394 35.1183 60.6764 35.3263C61.519 38.7219 64.0367 41.4528 67.3529 42.5675C67.4408 42.6059 67.5356 42.6248 67.6316 42.6235C67.9646 42.6244 68.2631 42.418 68.3794 42.1062C68.4543 41.9089 68.4479 41.6897 68.3613 41.4971C68.2747 41.3046 68.1153 41.1547 67.9181 41.0797L67.918 41.0797Z" fill="white"/>
<path d="M56.0927 40.6496C53.3023 39.7248 51.168 37.4527 50.4189 34.6098C50.3384 34.1799 49.9262 33.8957 49.4959 33.9732C49.2861 34.0102 49.1 34.1291 48.979 34.304C48.8579 34.4789 48.8118 34.6951 48.851 34.9045C49.7031 38.2948 52.2172 41.0219 55.5276 42.1457C55.6197 42.1771 55.7166 42.193 55.814 42.1935C56.1935 42.187 56.5157 41.9135 56.5833 41.54C56.6514 41.1666 56.4459 40.797 56.0927 40.6579L56.0927 40.6496Z" fill="white"/>
</svg>
