<svg width="142" height="49" viewBox="0 0 142 49" fill="none" xmlns="http://www.w3.org/2000/svg">
<path fill-rule="evenodd" clip-rule="evenodd" d="M16.1711 38.2435C15.5683 38.773 14.7133 38.8052 14.1149 38.2435C7.92602 32.4154 0.0986409 23.9193 0.0577169 14.4933C0.0210519 6.27167 6.70581 0.0384443 14.8557 0.000148435C23.0687 -0.03505 30.1407 6.19357 30.1774 14.5503C30.217 23.9542 22.2898 32.4537 16.1711 38.2435ZM23.6978 37.7771C20.9362 35.9277 23.752 31.723 26.5166 33.5724C31.9035 37.1832 31.4166 43.1873 25.1585 46.3993C19.502 49.3003 10.733 49.3003 5.07794 46.3993C-0.986334 43.2931 -1.84011 37.2977 3.71693 33.5724C6.47855 31.723 9.29724 35.9263 6.53573 37.7771C4.17449 39.3611 4.921 40.6384 7.37464 41.8969C11.547 44.0352 18.6866 44.0352 22.8559 41.8969C25.4592 40.5638 25.9519 39.2864 23.6978 37.7771ZM15.118 6.57946C19.3317 6.57946 22.7486 9.99666 22.7486 14.2101C22.7486 18.4236 19.3314 21.8438 15.118 21.8438C10.9017 21.8438 7.48434 18.4236 7.48434 14.2101C7.48434 9.99658 10.9015 6.57946 15.118 6.57946ZM59.4632 37.7873C55.76 37.7873 55.76 32.157 59.4632 32.157H65.4174C69.1206 32.157 69.1206 37.7873 65.4174 37.7873H59.4632ZM42.0603 37.7873C38.36 37.7873 38.36 32.157 42.0603 32.157H48.0176C51.7178 32.157 51.7178 37.7873 48.0176 37.7873H42.0603Z" fill="white"/>
<path fill-rule="evenodd" clip-rule="evenodd" d="M125.829 38.2435C126.432 38.773 127.287 38.8052 127.885 38.2435C134.074 32.4154 141.901 23.9193 141.942 14.4933C141.979 6.27167 135.294 0.0384443 127.144 0.000148435C118.931 -0.03505 111.859 6.19357 111.823 14.5503C111.783 23.9542 119.71 32.4537 125.829 38.2435ZM118.302 37.7771C121.064 35.9277 118.248 31.723 115.483 33.5724C110.096 37.1832 110.583 43.1873 116.841 46.3993C122.498 49.3003 131.267 49.3003 136.922 46.3993C142.986 43.2931 143.84 37.2977 138.283 33.5724C135.521 31.723 132.703 35.9263 135.464 37.7771C137.826 39.3611 137.079 40.6384 134.625 41.8969C130.453 44.0352 123.313 44.0352 119.144 41.8969C116.541 40.5638 116.048 39.2864 118.302 37.7771ZM126.882 6.57946C122.668 6.57946 119.251 9.99666 119.251 14.2101C119.251 18.4236 122.669 21.8438 126.882 21.8438C131.098 21.8438 134.516 18.4236 134.516 14.2101C134.516 9.99658 131.098 6.57946 126.882 6.57946ZM82.5368 37.7873C86.24 37.7873 86.24 32.157 82.5368 32.157H76.5826C72.8794 32.157 72.8794 37.7873 76.5826 37.7873H82.5368ZM99.9397 37.7873C103.64 37.7873 103.64 32.157 99.9397 32.157H93.9824C90.2822 32.157 90.2822 37.7873 93.9824 37.7873H99.9397Z" fill="white"/>
</svg>
