<svg width="38" height="69" viewBox="0 0 38 69" fill="none" xmlns="http://www.w3.org/2000/svg">
<path d="M19.0443 0.00934653C18.2399 0.0982462 17.6361 0.787079 17.6536 1.59698V9.412C17.6476 9.83032 17.8096 10.2334 18.103 10.5317C18.3964 10.8295 18.7973 10.9969 19.215 10.9969C19.6334 10.9969 20.0337 10.8295 20.3277 10.5317C20.6211 10.2334 20.7831 9.83032 20.7771 9.412V1.59698C20.7869 1.14702 20.602 0.714532 20.2698 0.4102C19.9382 0.106412 19.4916 -0.0397582 19.0443 0.00933269L19.0443 0.00934653ZM1.86532 7.04277C1.2572 7.10222 0.73962 7.51072 0.540003 8.08829C0.340931 8.66587 0.496373 9.30726 0.938148 9.7294L5.62314 14.4182C5.91548 14.7192 6.31689 14.8899 6.7363 14.8916C7.15571 14.8937 7.55875 14.7263 7.85381 14.428C8.14833 14.1291 8.31139 13.7244 8.30486 13.3045C8.29831 12.8851 8.12324 12.4853 7.81945 12.1957L3.13446 7.50691H3.13392C2.8034 7.16767 2.33655 6.99697 1.86533 7.04278L1.86532 7.04277ZM36.1996 7.04277C35.8554 7.09295 35.5375 7.25601 35.2964 7.5069L30.6114 12.1957C30.3071 12.4853 30.1326 12.885 30.126 13.3044C30.1195 13.7244 30.282 14.1291 30.5771 14.428C30.8721 14.7263 31.2746 14.8937 31.6946 14.8916C32.114 14.8899 32.5148 14.7192 32.8077 14.4182L37.4927 9.72939C37.9896 9.26198 38.1265 8.52624 37.8303 7.91152C37.5347 7.29632 36.8742 6.94508 36.1995 7.0427L36.1996 7.04277ZM19.2161 14.1008C13.8346 14.1008 9.41687 16.3505 6.4784 19.9376C3.5398 23.5246 2.03719 28.3755 2.03719 33.638C2.03719 37.3319 2.49477 40.8487 3.81848 43.9198C5.01508 46.6959 7.01832 49.0323 9.84565 50.6603V55.0317H9.84511C9.73603 55.3568 9.73603 55.708 9.84511 56.0331V57.0835C9.84511 59.2776 11.1628 61.1963 13.0417 62.0658C13.2157 63.6883 13.7666 65.1581 14.6523 66.3394C15.7289 67.776 17.3591 68.8062 19.2156 68.8062C21.0722 68.8062 22.7024 67.776 23.779 66.3394C24.6642 65.1581 25.2156 63.6883 25.3896 62.0658C27.2684 61.1969 28.5862 59.2776 28.5862 57.0835V55.8133C28.6096 55.6595 28.6096 55.5029 28.5862 55.3491V50.6604C31.4141 49.033 33.4168 46.6964 34.6134 43.9199C35.937 40.8493 36.3946 37.332 36.3946 33.638C36.3946 28.375 34.8921 23.5247 31.9534 19.9377C29.0148 16.3507 24.5971 14.1008 19.2158 14.1008L19.2161 14.1008ZM19.2161 17.227C23.7537 17.227 27.1478 18.998 29.5383 21.9158C31.9287 24.8342 33.272 28.9738 33.272 33.638C33.272 37.0673 32.8144 40.169 31.7345 42.6741C30.6546 45.1791 29.0113 47.0956 26.3416 48.3888H26.3411C26.2822 48.4177 26.2249 48.4505 26.1704 48.487H20.7775V39.3287L25.1455 30.5614C25.4019 30.0444 25.4024 29.409 25.1466 28.8914C24.8903 28.3744 24.4163 28.0526 23.901 28.0455H14.5305C14.0146 28.0526 13.5407 28.3744 13.2849 28.8914C13.0291 29.409 13.0296 30.0444 13.2859 30.5614L17.654 39.3287V48.487H12.2611C12.206 48.4505 12.1493 48.4177 12.0904 48.3888C9.42072 47.0957 7.77737 45.1786 6.69754 42.6741C5.61771 40.1696 5.16003 37.068 5.16003 33.638C5.16003 28.9738 6.50334 24.8336 8.89378 21.9158C11.2842 18.9974 14.6783 17.227 19.216 17.227H19.2161ZM17.0442 31.4153H21.3877L19.2159 35.7622L17.0442 31.4153ZM12.969 51.6116H25.4629V53.9562H12.969V51.6116ZM12.969 57.0819H25.4629C25.4629 58.4078 24.4451 59.4266 23.1204 59.4266H15.312C13.9872 59.4266 12.9695 58.4078 12.9695 57.0819H12.969ZM16.3362 62.5523H22.095C21.9085 63.2946 21.6609 63.9616 21.29 64.4574C20.671 65.2837 19.9467 65.6786 19.216 65.6786C18.4852 65.6786 17.7608 65.2837 17.1419 64.4574C16.7705 63.9622 16.5229 63.2952 16.3369 62.5523H16.3362Z" fill="white"/>
</svg>
