<svg width="343" height="238" viewBox="0 0 343 238" fill="none" xmlns="http://www.w3.org/2000/svg">
<rect x="162.985" y="107.819" width="17.9468" height="22.4334" fill="black"/>
<rect x="142.795" y="147.077" width="16.8251" height="58.3269" rx="3" transform="rotate(-90 142.795 147.077)" fill="black"/>
<rect x="142.795" y="107.819" width="17.9467" height="58.3269" rx="3" transform="rotate(-90 142.795 107.819)" fill="black"/>
<mask id="path-4-inside-1_102_67" fill="white">
<path fill-rule="evenodd" clip-rule="evenodd" d="M19.0408 237.055L18.976 237.11L18.9322 237.055H3C1.34314 237.055 0 235.712 0 234.055V223.23C0 221.573 1.34314 220.23 3 220.23H11.3247L116.068 129.394V129.055H131.068C132.725 129.055 134.068 130.398 134.068 132.055V144.055C134.068 145.712 132.725 147.055 131.068 147.055H124.821L19.0684 237.032V237.055H19.0408Z"/>
</mask>
<path fill-rule="evenodd" clip-rule="evenodd" d="M19.0408 237.055L18.976 237.11L18.9322 237.055H3C1.34314 237.055 0 235.712 0 234.055V223.23C0 221.573 1.34314 220.23 3 220.23H11.3247L116.068 129.394V129.055H131.068C132.725 129.055 134.068 130.398 134.068 132.055V144.055C134.068 145.712 132.725 147.055 131.068 147.055H124.821L19.0684 237.032V237.055H19.0408Z" fill="#05A502"/>
<path d="M18.976 237.11L17.4089 238.353L18.6953 239.975L20.272 238.634L18.976 237.11ZM19.0408 237.055V235.055H18.3051L17.7448 235.532L19.0408 237.055ZM18.9322 237.055L20.4993 235.812L19.8987 235.055H18.9322V237.055ZM11.3247 220.23V222.23H12.0711L12.635 221.741L11.3247 220.23ZM116.068 129.394L117.379 130.905L118.068 130.307V129.394H116.068ZM116.068 129.055V127.055H114.068V129.055H116.068ZM124.821 147.055V145.055H124.085L123.525 145.532L124.821 147.055ZM19.0684 237.032L17.7724 235.508L17.0684 236.107V237.032H19.0684ZM19.0684 237.055V239.055H21.0684V237.055H19.0684ZM20.272 238.634L20.3369 238.578L17.7448 235.532L17.6799 235.587L20.272 238.634ZM17.3652 238.298L17.4089 238.353L20.543 235.868L20.4993 235.812L17.3652 238.298ZM18.9322 235.055H3V239.055H18.9322V235.055ZM3 235.055C2.44771 235.055 2 234.607 2 234.055H-2C-2 236.817 0.238566 239.055 3 239.055V235.055ZM2 234.055V223.23H-2V234.055H2ZM2 223.23C2 222.678 2.44771 222.23 3 222.23V218.23C0.238567 218.23 -2 220.469 -2 223.23H2ZM3 222.23H11.3247V218.23H3V222.23ZM114.758 127.883L10.0143 218.719L12.635 221.741L117.379 130.905L114.758 127.883ZM118.068 129.394V129.055H114.068V129.394H118.068ZM116.068 131.055H131.068V127.055H116.068V131.055ZM131.068 131.055C131.621 131.055 132.068 131.503 132.068 132.055H136.068C136.068 129.294 133.83 127.055 131.068 127.055V131.055ZM132.068 132.055V144.055H136.068V132.055H132.068ZM132.068 144.055C132.068 144.607 131.621 145.055 131.068 145.055V149.055C133.83 149.055 136.068 146.817 136.068 144.055H132.068ZM131.068 145.055H124.821V149.055H131.068V145.055ZM20.3644 238.555L126.117 148.578L123.525 145.532L17.7724 235.508L20.3644 238.555ZM17.0684 237.032V237.055H21.0684V237.032H17.0684ZM19.0684 235.055H19.0408V239.055H19.0684V235.055Z" fill="black" mask="url(#path-4-inside-1_102_67)"/>
<mask id="path-6-inside-2_102_67" fill="white">
<path fill-rule="evenodd" clip-rule="evenodd" d="M323.028 237.11L323.092 237.166L323.136 237.11H339.068C340.725 237.11 342.068 235.767 342.068 234.11V223.285C342.068 221.628 340.725 220.285 339.068 220.285H330.744L226 129.449V129.11H211C209.343 129.11 208 130.453 208 132.11V144.11C208 145.767 209.343 147.11 211 147.11H217.247L323 237.087V237.11H323.028Z"/>
</mask>
<path fill-rule="evenodd" clip-rule="evenodd" d="M323.028 237.11L323.092 237.166L323.136 237.11H339.068C340.725 237.11 342.068 235.767 342.068 234.11V223.285C342.068 221.628 340.725 220.285 339.068 220.285H330.744L226 129.449V129.11H211C209.343 129.11 208 130.453 208 132.11V144.11C208 145.767 209.343 147.11 211 147.11H217.247L323 237.087V237.11H323.028Z" fill="#05A502"/>
<path d="M323.092 237.166L324.659 238.408L323.373 240.03L321.796 238.689L323.092 237.166ZM323.028 237.11V235.11H323.763L324.324 235.587L323.028 237.11ZM323.136 237.11L321.569 235.868L322.17 235.11H323.136V237.11ZM330.744 220.285V222.285H329.997L329.433 221.796L330.744 220.285ZM226 129.449L224.69 130.96L224 130.362V129.449H226ZM226 129.11V127.11H228V129.11H226ZM217.247 147.11V145.11H217.983L218.543 145.587L217.247 147.11ZM323 237.087L324.296 235.564L325 236.163V237.087H323ZM323 237.11V239.11H321V237.11H323ZM321.796 238.689L321.732 238.634L324.324 235.587L324.388 235.642L321.796 238.689ZM324.703 238.353L324.659 238.408L321.525 235.923L321.569 235.868L324.703 238.353ZM323.136 235.11H339.068V239.11H323.136V235.11ZM339.068 235.11C339.621 235.11 340.068 234.663 340.068 234.11H344.068C344.068 236.872 341.83 239.11 339.068 239.11V235.11ZM340.068 234.11V223.285H344.068V234.11H340.068ZM340.068 223.285C340.068 222.733 339.621 222.285 339.068 222.285V218.285C341.83 218.285 344.068 220.524 344.068 223.285H340.068ZM339.068 222.285H330.744V218.285H339.068V222.285ZM227.31 127.938L332.054 218.774L329.433 221.796L224.69 130.96L227.31 127.938ZM224 129.449V129.11H228V129.449H224ZM226 131.11H211V127.11H226V131.11ZM211 131.11C210.448 131.11 210 131.558 210 132.11H206C206 129.349 208.239 127.11 211 127.11V131.11ZM210 132.11V144.11H206V132.11H210ZM210 144.11C210 144.663 210.448 145.11 211 145.11V149.11C208.239 149.11 206 146.872 206 144.11H210ZM211 145.11H217.247V149.11H211V145.11ZM321.704 238.61L215.951 148.634L218.543 145.587L324.296 235.564L321.704 238.61ZM325 237.087V237.11H321V237.087H325ZM323 235.11H323.028V239.11H323V235.11Z" fill="black" mask="url(#path-6-inside-2_102_67)"/>
<mask id="path-8-inside-3_102_67" fill="white">
<path fill-rule="evenodd" clip-rule="evenodd" d="M323.028 0.055164L323.092 0L323.136 0.055164H339.068C340.725 0.055164 342.068 1.39831 342.068 3.05517V13.8802C342.068 15.5371 340.725 16.8802 339.068 16.8802H330.744L226 107.716V108.055H211C209.343 108.055 208 106.712 208 105.055V93.0552C208 91.3983 209.343 90.0552 211 90.0552H217.247L323 0.078648V0.055164H323.028Z"/>
</mask>
<path fill-rule="evenodd" clip-rule="evenodd" d="M323.028 0.055164L323.092 0L323.136 0.055164H339.068C340.725 0.055164 342.068 1.39831 342.068 3.05517V13.8802C342.068 15.5371 340.725 16.8802 339.068 16.8802H330.744L226 107.716V108.055H211C209.343 108.055 208 106.712 208 105.055V93.0552C208 91.3983 209.343 90.0552 211 90.0552H217.247L323 0.078648V0.055164H323.028Z" fill="#05A502"/>
<path d="M323.092 0L324.659 -1.24272L323.373 -2.8648L321.796 -1.52324L323.092 0ZM323.028 0.055164V2.05516H323.763L324.324 1.57841L323.028 0.055164ZM323.136 0.055164L321.569 1.29789L322.17 2.05516H323.136V0.055164ZM330.744 16.8802V14.8802H329.997L329.433 15.3693L330.744 16.8802ZM226 107.716L224.69 106.205L224 106.803V107.716H226ZM226 108.055V110.055H228V108.055H226ZM217.247 90.0552V92.0552H217.983L218.543 91.5784L217.247 90.0552ZM323 0.078648L324.296 1.60191L325 1.00295V0.078648H323ZM323 0.055164V-1.94484H321V0.055164H323ZM321.796 -1.52324L321.732 -1.46808L324.324 1.57841L324.388 1.52324L321.796 -1.52324ZM324.703 -1.18756L324.659 -1.24272L321.525 1.24272L321.569 1.29789L324.703 -1.18756ZM323.136 2.05516H339.068V-1.94484H323.136V2.05516ZM339.068 2.05516C339.621 2.05516 340.068 2.50288 340.068 3.05517H344.068C344.068 0.293746 341.83 -1.94484 339.068 -1.94484V2.05516ZM340.068 3.05517V13.8802H344.068V3.05517H340.068ZM340.068 13.8802C340.068 14.4325 339.621 14.8802 339.068 14.8802V18.8802C341.83 18.8802 344.068 16.6417 344.068 13.8802H340.068ZM339.068 14.8802H330.744V18.8802H339.068V14.8802ZM227.31 109.227L332.054 18.3912L329.433 15.3693L224.69 106.205L227.31 109.227ZM224 107.716V108.055H228V107.716H224ZM226 106.055H211V110.055H226V106.055ZM211 106.055C210.448 106.055 210 105.607 210 105.055H206C206 107.817 208.239 110.055 211 110.055V106.055ZM210 105.055V93.0552H206V105.055H210ZM210 93.0552C210 92.5029 210.448 92.0552 211 92.0552V88.0552C208.239 88.0552 206 90.2938 206 93.0552H210ZM211 92.0552H217.247V88.0552H211V92.0552ZM321.704 -1.44461L215.951 88.5319L218.543 91.5784L324.296 1.60191L321.704 -1.44461ZM325 0.078648V0.055164H321V0.078648H325ZM323 2.05516H323.028V-1.94484H323V2.05516Z" fill="black" mask="url(#path-8-inside-3_102_67)"/>
</svg>
