<svg width="342" height="236" viewBox="0 0 342 236" fill="none" xmlns="http://www.w3.org/2000/svg">
<path d="M3.5 5L3.49999 231C3.49999 232.381 4.61928 233.5 5.99999 233.5L17 233.5C18.3807 233.5 19.5 232.381 19.5 231L19.5 5C19.5 3.61929 18.3807 2.5 17 2.5L6 2.5C4.61929 2.5 3.5 3.61929 3.5 5Z" fill="#05A502" stroke="black"/>
<path d="M321.5 5L321.5 231C321.5 232.381 322.619 233.5 324 233.5L335 233.5C336.381 233.5 337.5 232.381 337.5 231L337.5 5C337.5 3.61929 336.381 2.5 335 2.5L324 2.5C322.619 2.5 321.5 3.61929 321.5 5Z" fill="#05A502" stroke="black"/>
</svg>
