<svg width="343" height="239" viewBox="0 0 343 239" fill="none" xmlns="http://www.w3.org/2000/svg">
<rect x="162.985" y="108.764" width="17.9468" height="22.4334" fill="black"/>
<rect x="142.795" y="148.022" width="16.8251" height="58.3269" rx="3" transform="rotate(-90 142.795 148.022)" fill="black"/>
<rect x="142.795" y="108.764" width="17.9467" height="58.3269" rx="3" transform="rotate(-90 142.795 108.764)" fill="black"/>
<mask id="path-4-inside-1_102_3" fill="white">
<path fill-rule="evenodd" clip-rule="evenodd" d="M19.0408 238L18.976 238.055L18.9322 238H3C1.34314 238 0 236.657 0 235V224.175C0 222.518 1.34314 221.175 3 221.175H11.3247L116.068 130.339V130H131.068C132.725 130 134.068 131.343 134.068 133V145C134.068 146.657 132.725 148 131.068 148H124.821L19.0684 237.977V238H19.0408Z"/>
</mask>
<path fill-rule="evenodd" clip-rule="evenodd" d="M19.0408 238L18.976 238.055L18.9322 238H3C1.34314 238 0 236.657 0 235V224.175C0 222.518 1.34314 221.175 3 221.175H11.3247L116.068 130.339V130H131.068C132.725 130 134.068 131.343 134.068 133V145C134.068 146.657 132.725 148 131.068 148H124.821L19.0684 237.977V238H19.0408Z" fill="#05A502"/>
<path d="M18.976 238.055L17.4089 239.298L18.6953 240.92L20.272 239.578L18.976 238.055ZM19.0408 238V236H18.3051L17.7448 236.477L19.0408 238ZM18.9322 238L20.4993 236.757L19.8987 236H18.9322V238ZM11.3247 221.175V223.175H12.0711L12.635 222.686L11.3247 221.175ZM116.068 130.339L117.379 131.85L118.068 131.252V130.339H116.068ZM116.068 130V128H114.068V130H116.068ZM124.821 148V146H124.085L123.525 146.477L124.821 148ZM19.0684 237.977L17.7724 236.453L17.0684 237.052V237.977H19.0684ZM19.0684 238V240H21.0684V238H19.0684ZM20.272 239.578L20.3369 239.523L17.7448 236.477L17.6799 236.532L20.272 239.578ZM17.3652 239.243L17.4089 239.298L20.543 236.812L20.4993 236.757L17.3652 239.243ZM18.9322 236H3V240H18.9322V236ZM3 236C2.44771 236 2 235.552 2 235H-2C-2 237.761 0.238566 240 3 240V236ZM2 235V224.175H-2V235H2ZM2 224.175C2 223.623 2.44771 223.175 3 223.175V219.175C0.238567 219.175 -2 221.414 -2 224.175H2ZM3 223.175H11.3247V219.175H3V223.175ZM114.758 128.828L10.0143 219.664L12.635 222.686L117.379 131.85L114.758 128.828ZM118.068 130.339V130H114.068V130.339H118.068ZM116.068 132H131.068V128H116.068V132ZM131.068 132C131.621 132 132.068 132.448 132.068 133H136.068C136.068 130.239 133.83 128 131.068 128V132ZM132.068 133V145H136.068V133H132.068ZM132.068 145C132.068 145.552 131.621 146 131.068 146V150C133.83 150 136.068 147.761 136.068 145H132.068ZM131.068 146H124.821V150H131.068V146ZM20.3644 239.5L126.117 149.523L123.525 146.477L17.7724 236.453L20.3644 239.5ZM17.0684 237.977V238H21.0684V237.977H17.0684ZM19.0684 236H19.0408V240H19.0684V236Z" fill="black" mask="url(#path-4-inside-1_102_3)"/>
<mask id="path-6-inside-2_102_3" fill="white">
<path fill-rule="evenodd" clip-rule="evenodd" d="M323.028 238.055L323.092 238.11L323.136 238.055H339.068C340.725 238.055 342.068 236.712 342.068 235.055V224.23C342.068 222.573 340.725 221.23 339.068 221.23H330.744L226 130.394V130.055H211C209.343 130.055 208 131.398 208 133.055V145.055C208 146.712 209.343 148.055 211 148.055H217.247L323 238.032V238.055H323.028Z"/>
</mask>
<path fill-rule="evenodd" clip-rule="evenodd" d="M323.028 238.055L323.092 238.11L323.136 238.055H339.068C340.725 238.055 342.068 236.712 342.068 235.055V224.23C342.068 222.573 340.725 221.23 339.068 221.23H330.744L226 130.394V130.055H211C209.343 130.055 208 131.398 208 133.055V145.055C208 146.712 209.343 148.055 211 148.055H217.247L323 238.032V238.055H323.028Z" fill="#05A502"/>
<path d="M323.092 238.11L324.659 239.353L323.373 240.975L321.796 239.634L323.092 238.11ZM323.028 238.055V236.055H323.763L324.324 236.532L323.028 238.055ZM323.136 238.055L321.569 236.812L322.17 236.055H323.136V238.055ZM330.744 221.23V223.23H329.997L329.433 222.741L330.744 221.23ZM226 130.394L224.69 131.905L224 131.307V130.394H226ZM226 130.055V128.055H228V130.055H226ZM217.247 148.055V146.055H217.983L218.543 146.532L217.247 148.055ZM323 238.032L324.296 236.508L325 237.107V238.032H323ZM323 238.055V240.055H321V238.055H323ZM321.796 239.634L321.732 239.578L324.324 236.532L324.388 236.587L321.796 239.634ZM324.703 239.298L324.659 239.353L321.525 236.868L321.569 236.812L324.703 239.298ZM323.136 236.055H339.068V240.055H323.136V236.055ZM339.068 236.055C339.621 236.055 340.068 235.607 340.068 235.055H344.068C344.068 237.817 341.83 240.055 339.068 240.055V236.055ZM340.068 235.055V224.23H344.068V235.055H340.068ZM340.068 224.23C340.068 223.678 339.621 223.23 339.068 223.23V219.23C341.83 219.23 344.068 221.469 344.068 224.23H340.068ZM339.068 223.23H330.744V219.23H339.068V223.23ZM227.31 128.883L332.054 219.719L329.433 222.741L224.69 131.905L227.31 128.883ZM224 130.394V130.055H228V130.394H224ZM226 132.055H211V128.055H226V132.055ZM211 132.055C210.448 132.055 210 132.503 210 133.055H206C206 130.294 208.239 128.055 211 128.055V132.055ZM210 133.055V145.055H206V133.055H210ZM210 145.055C210 145.607 210.448 146.055 211 146.055V150.055C208.239 150.055 206 147.817 206 145.055H210ZM211 146.055H217.247V150.055H211V146.055ZM321.704 239.555L215.951 149.578L218.543 146.532L324.296 236.508L321.704 239.555ZM325 238.032V238.055H321V238.032H325ZM323 236.055H323.028V240.055H323V236.055Z" fill="black" mask="url(#path-6-inside-2_102_3)"/>
<mask id="path-8-inside-3_102_3" fill="white">
<path fill-rule="evenodd" clip-rule="evenodd" d="M19.0408 1.05516L18.976 1L18.9322 1.05516H3C1.34314 1.05516 0 2.39831 0 4.05517V14.8802C0 16.5371 1.34314 17.8802 3 17.8802H11.3247L116.068 108.716V109.055H131.068C132.725 109.055 134.068 107.712 134.068 106.055V94.0552C134.068 92.3983 132.725 91.0552 131.068 91.0552H124.821L19.0684 1.07865V1.05516H19.0408Z"/>
</mask>
<path fill-rule="evenodd" clip-rule="evenodd" d="M19.0408 1.05516L18.976 1L18.9322 1.05516H3C1.34314 1.05516 0 2.39831 0 4.05517V14.8802C0 16.5371 1.34314 17.8802 3 17.8802H11.3247L116.068 108.716V109.055H131.068C132.725 109.055 134.068 107.712 134.068 106.055V94.0552C134.068 92.3983 132.725 91.0552 131.068 91.0552H124.821L19.0684 1.07865V1.05516H19.0408Z" fill="#05A502"/>
<path d="M18.976 1L17.4089 -0.242722L18.6953 -1.8648L20.272 -0.523245L18.976 1ZM19.0408 1.05516V3.05516H18.3051L17.7448 2.57841L19.0408 1.05516ZM18.9322 1.05516L20.4993 2.29789L19.8987 3.05516H18.9322V1.05516ZM11.3247 17.8802V15.8802H12.0711L12.635 16.3693L11.3247 17.8802ZM116.068 108.716L117.379 107.205L118.068 107.803V108.716H116.068ZM116.068 109.055V111.055H114.068V109.055H116.068ZM124.821 91.0552V93.0552H124.085L123.525 92.5784L124.821 91.0552ZM19.0684 1.07865L17.7724 2.60191L17.0684 2.00295V1.07865H19.0684ZM19.0684 1.05516V-0.944836H21.0684V1.05516H19.0684ZM20.272 -0.523245L20.3369 -0.468081L17.7448 2.57841L17.6799 2.52324L20.272 -0.523245ZM17.3652 -0.187558L17.4089 -0.242722L20.543 2.24272L20.4993 2.29789L17.3652 -0.187558ZM18.9322 3.05516H3V-0.944836H18.9322V3.05516ZM3 3.05516C2.44771 3.05516 2 3.50288 2 4.05517H-2C-2 1.29375 0.238566 -0.944836 3 -0.944836V3.05516ZM2 4.05517V14.8802H-2V4.05517H2ZM2 14.8802C2 15.4325 2.44771 15.8802 3 15.8802V19.8802C0.238567 19.8802 -2 17.6417 -2 14.8802H2ZM3 15.8802H11.3247V19.8802H3V15.8802ZM114.758 110.227L10.0143 19.3912L12.635 16.3693L117.379 107.205L114.758 110.227ZM118.068 108.716V109.055H114.068V108.716H118.068ZM116.068 107.055H131.068V111.055H116.068V107.055ZM131.068 107.055C131.621 107.055 132.068 106.607 132.068 106.055H136.068C136.068 108.817 133.83 111.055 131.068 111.055V107.055ZM132.068 106.055V94.0552H136.068V106.055H132.068ZM132.068 94.0552C132.068 93.5029 131.621 93.0552 131.068 93.0552V89.0552C133.83 89.0552 136.068 91.2938 136.068 94.0552H132.068ZM131.068 93.0552H124.821V89.0552H131.068V93.0552ZM20.3644 -0.444613L126.117 89.5319L123.525 92.5784L17.7724 2.60191L20.3644 -0.444613ZM17.0684 1.07865V1.05516H21.0684V1.07865H17.0684ZM19.0684 3.05516H19.0408V-0.944836H19.0684V3.05516Z" fill="black" mask="url(#path-8-inside-3_102_3)"/>
<mask id="path-10-inside-4_102_3" fill="white">
<path fill-rule="evenodd" clip-rule="evenodd" d="M323.028 0.999988L323.092 0.944824L323.136 0.999988H339.068C340.725 0.999988 342.068 2.34314 342.068 3.99999V14.8251C342.068 16.4819 340.725 17.8251 339.068 17.8251H330.744L226 108.661V109H211C209.343 109 208 107.657 208 106V94C208 92.3431 209.343 91 211 91H217.247L323 1.02347V0.999988H323.028Z"/>
</mask>
<path fill-rule="evenodd" clip-rule="evenodd" d="M323.028 0.999988L323.092 0.944824L323.136 0.999988H339.068C340.725 0.999988 342.068 2.34314 342.068 3.99999V14.8251C342.068 16.4819 340.725 17.8251 339.068 17.8251H330.744L226 108.661V109H211C209.343 109 208 107.657 208 106V94C208 92.3431 209.343 91 211 91H217.247L323 1.02347V0.999988H323.028Z" fill="#05A502"/>
<path d="M323.092 0.944824L324.659 -0.297898L323.373 -1.91997L321.796 -0.578421L323.092 0.944824ZM323.028 0.999988V2.99999H323.763L324.324 2.52323L323.028 0.999988ZM323.136 0.999988L321.569 2.24271L322.17 2.99999H323.136V0.999988ZM330.744 17.8251V15.8251H329.997L329.433 16.3141L330.744 17.8251ZM226 108.661L224.69 107.15L224 107.748V108.661H226ZM226 109V111H228V109H226ZM217.247 91V93H217.983L218.543 92.5233L217.247 91ZM323 1.02347L324.296 2.54673L325 1.94777V1.02347H323ZM323 0.999988V-1.00001H321V0.999988H323ZM321.796 -0.578421L321.732 -0.523257L324.324 2.52323L324.388 2.46807L321.796 -0.578421ZM324.703 -0.242734L324.659 -0.297898L321.525 2.18755L321.569 2.24271L324.703 -0.242734ZM323.136 2.99999H339.068V-1.00001H323.136V2.99999ZM339.068 2.99999C339.621 2.99999 340.068 3.4477 340.068 3.99999H344.068C344.068 1.23857 341.83 -1.00001 339.068 -1.00001V2.99999ZM340.068 3.99999V14.8251H344.068V3.99999H340.068ZM340.068 14.8251C340.068 15.3774 339.621 15.8251 339.068 15.8251V19.8251C341.83 19.8251 344.068 17.5865 344.068 14.8251H340.068ZM339.068 15.8251H330.744V19.8251H339.068V15.8251ZM227.31 110.172L332.054 19.336L329.433 16.3141L224.69 107.15L227.31 110.172ZM224 108.661V109H228V108.661H224ZM226 107H211V111H226V107ZM211 107C210.448 107 210 106.552 210 106H206C206 108.761 208.239 111 211 111V107ZM210 106V94H206V106H210ZM210 94C210 93.4477 210.448 93 211 93V89C208.239 89 206 91.2386 206 94H210ZM211 93H217.247V89H211V93ZM321.704 -0.499789L215.951 89.4767L218.543 92.5233L324.296 2.54673L321.704 -0.499789ZM325 1.02347V0.999988H321V1.02347H325ZM323 2.99999H323.028V-1.00001H323V2.99999Z" fill="black" mask="url(#path-10-inside-4_102_3)"/>
</svg>
