<svg width="343" height="238" viewBox="0 0 343 238" fill="none" xmlns="http://www.w3.org/2000/svg">
<rect x="162.985" y="107.819" width="17.9468" height="22.4334" fill="black"/>
<rect x="142.795" y="147.077" width="16.8251" height="58.3269" rx="3" transform="rotate(-90 142.795 147.077)" fill="black"/>
<rect x="142.795" y="107.819" width="17.9467" height="58.3269" rx="3" transform="rotate(-90 142.795 107.819)" fill="black"/>
<mask id="path-4-inside-1_102_90" fill="white">
<path fill-rule="evenodd" clip-rule="evenodd" d="M19.0408 237.055L18.976 237.11L18.9322 237.055H3C1.34314 237.055 0 235.712 0 234.055V223.23C0 221.573 1.34314 220.23 3 220.23H11.3247L116.068 129.394V129.055H131.068C132.725 129.055 134.068 130.398 134.068 132.055V144.055C134.068 145.712 132.725 147.055 131.068 147.055H124.821L19.0684 237.032V237.055H19.0408Z"/>
</mask>
<path fill-rule="evenodd" clip-rule="evenodd" d="M19.0408 237.055L18.976 237.11L18.9322 237.055H3C1.34314 237.055 0 235.712 0 234.055V223.23C0 221.573 1.34314 220.23 3 220.23H11.3247L116.068 129.394V129.055H131.068C132.725 129.055 134.068 130.398 134.068 132.055V144.055C134.068 145.712 132.725 147.055 131.068 147.055H124.821L19.0684 237.032V237.055H19.0408Z" fill="#05A502"/>
<path d="M18.976 237.11L17.4089 238.353L18.6953 239.975L20.272 238.634L18.976 237.11ZM19.0408 237.055V235.055H18.3051L17.7448 235.532L19.0408 237.055ZM18.9322 237.055L20.4993 235.812L19.8987 235.055H18.9322V237.055ZM11.3247 220.23V222.23H12.0711L12.635 221.741L11.3247 220.23ZM116.068 129.394L117.379 130.905L118.068 130.307V129.394H116.068ZM116.068 129.055V127.055H114.068V129.055H116.068ZM124.821 147.055V145.055H124.085L123.525 145.532L124.821 147.055ZM19.0684 237.032L17.7724 235.508L17.0684 236.107V237.032H19.0684ZM19.0684 237.055V239.055H21.0684V237.055H19.0684ZM20.272 238.634L20.3369 238.578L17.7448 235.532L17.6799 235.587L20.272 238.634ZM17.3652 238.298L17.4089 238.353L20.543 235.868L20.4993 235.812L17.3652 238.298ZM18.9322 235.055H3V239.055H18.9322V235.055ZM3 235.055C2.44771 235.055 2 234.607 2 234.055H-2C-2 236.817 0.238566 239.055 3 239.055V235.055ZM2 234.055V223.23H-2V234.055H2ZM2 223.23C2 222.678 2.44771 222.23 3 222.23V218.23C0.238567 218.23 -2 220.469 -2 223.23H2ZM3 222.23H11.3247V218.23H3V222.23ZM114.758 127.883L10.0143 218.719L12.635 221.741L117.379 130.905L114.758 127.883ZM118.068 129.394V129.055H114.068V129.394H118.068ZM116.068 131.055H131.068V127.055H116.068V131.055ZM131.068 131.055C131.621 131.055 132.068 131.503 132.068 132.055H136.068C136.068 129.294 133.83 127.055 131.068 127.055V131.055ZM132.068 132.055V144.055H136.068V132.055H132.068ZM132.068 144.055C132.068 144.607 131.621 145.055 131.068 145.055V149.055C133.83 149.055 136.068 146.817 136.068 144.055H132.068ZM131.068 145.055H124.821V149.055H131.068V145.055ZM20.3644 238.555L126.117 148.578L123.525 145.532L17.7724 235.508L20.3644 238.555ZM17.0684 237.032V237.055H21.0684V237.032H17.0684ZM19.0684 235.055H19.0408V239.055H19.0684V235.055Z" fill="black" mask="url(#path-4-inside-1_102_90)"/>
<mask id="path-6-inside-2_102_90" fill="white">
<path fill-rule="evenodd" clip-rule="evenodd" d="M323.028 237.11L323.092 237.166L323.136 237.11H339.068C340.725 237.11 342.068 235.767 342.068 234.11V223.285C342.068 221.628 340.725 220.285 339.068 220.285H330.744L226 129.449V129.11H211C209.343 129.11 208 130.453 208 132.11V144.11C208 145.767 209.343 147.11 211 147.11H217.247L323 237.087V237.11H323.028Z"/>
</mask>
<path fill-rule="evenodd" clip-rule="evenodd" d="M323.028 237.11L323.092 237.166L323.136 237.11H339.068C340.725 237.11 342.068 235.767 342.068 234.11V223.285C342.068 221.628 340.725 220.285 339.068 220.285H330.744L226 129.449V129.11H211C209.343 129.11 208 130.453 208 132.11V144.11C208 145.767 209.343 147.11 211 147.11H217.247L323 237.087V237.11H323.028Z" fill="#05A502"/>
<path d="M323.092 237.166L324.659 238.408L323.373 240.03L321.796 238.689L323.092 237.166ZM323.028 237.11V235.11H323.763L324.324 235.587L323.028 237.11ZM323.136 237.11L321.569 235.868L322.17 235.11H323.136V237.11ZM330.744 220.285V222.285H329.997L329.433 221.796L330.744 220.285ZM226 129.449L224.69 130.96L224 130.362V129.449H226ZM226 129.11V127.11H228V129.11H226ZM217.247 147.11V145.11H217.983L218.543 145.587L217.247 147.11ZM323 237.087L324.296 235.564L325 236.163V237.087H323ZM323 237.11V239.11H321V237.11H323ZM321.796 238.689L321.732 238.634L324.324 235.587L324.388 235.642L321.796 238.689ZM324.703 238.353L324.659 238.408L321.525 235.923L321.569 235.868L324.703 238.353ZM323.136 235.11H339.068V239.11H323.136V235.11ZM339.068 235.11C339.621 235.11 340.068 234.663 340.068 234.11H344.068C344.068 236.872 341.83 239.11 339.068 239.11V235.11ZM340.068 234.11V223.285H344.068V234.11H340.068ZM340.068 223.285C340.068 222.733 339.621 222.285 339.068 222.285V218.285C341.83 218.285 344.068 220.524 344.068 223.285H340.068ZM339.068 222.285H330.744V218.285H339.068V222.285ZM227.31 127.938L332.054 218.774L329.433 221.796L224.69 130.96L227.31 127.938ZM224 129.449V129.11H228V129.449H224ZM226 131.11H211V127.11H226V131.11ZM211 131.11C210.448 131.11 210 131.558 210 132.11H206C206 129.349 208.239 127.11 211 127.11V131.11ZM210 132.11V144.11H206V132.11H210ZM210 144.11C210 144.663 210.448 145.11 211 145.11V149.11C208.239 149.11 206 146.872 206 144.11H210ZM211 145.11H217.247V149.11H211V145.11ZM321.704 238.61L215.951 148.634L218.543 145.587L324.296 235.564L321.704 238.61ZM325 237.087V237.11H321V237.087H325ZM323 235.11H323.028V239.11H323V235.11Z" fill="black" mask="url(#path-6-inside-2_102_90)"/>
<mask id="path-8-inside-3_102_90" fill="white">
<path fill-rule="evenodd" clip-rule="evenodd" d="M19.0408 0.11034L18.976 0.0551758L18.9322 0.11034H3C1.34314 0.11034 0 1.45349 0 3.11034V13.9354C0 15.5923 1.34314 16.9354 3 16.9354H11.3247L116.068 107.771V108.11H131.068C132.725 108.11 134.068 106.767 134.068 105.11V93.1104C134.068 91.4535 132.725 90.1104 131.068 90.1104H124.821L19.0684 0.133824V0.11034H19.0408Z"/>
</mask>
<path fill-rule="evenodd" clip-rule="evenodd" d="M19.0408 0.11034L18.976 0.0551758L18.9322 0.11034H3C1.34314 0.11034 0 1.45349 0 3.11034V13.9354C0 15.5923 1.34314 16.9354 3 16.9354H11.3247L116.068 107.771V108.11H131.068C132.725 108.11 134.068 106.767 134.068 105.11V93.1104C134.068 91.4535 132.725 90.1104 131.068 90.1104H124.821L19.0684 0.133824V0.11034H19.0408Z" fill="#05A502"/>
<path d="M18.976 0.0551758L17.4089 -1.18755L18.6953 -2.80962L20.272 -1.46807L18.976 0.0551758ZM19.0408 0.11034V2.11034H18.3051L17.7448 1.63358L19.0408 0.11034ZM18.9322 0.11034L20.4993 1.35306L19.8987 2.11034H18.9322V0.11034ZM11.3247 16.9354V14.9354H12.0711L12.635 15.4245L11.3247 16.9354ZM116.068 107.771L117.379 106.26L118.068 106.858V107.771H116.068ZM116.068 108.11V110.11H114.068V108.11H116.068ZM124.821 90.1104V92.1104H124.085L123.525 91.6336L124.821 90.1104ZM19.0684 0.133824L17.7724 1.65708L17.0684 1.05813V0.133824H19.0684ZM19.0684 0.11034V-1.88966H21.0684V0.11034H19.0684ZM20.272 -1.46807L20.3369 -1.41291L17.7448 1.63358L17.6799 1.57842L20.272 -1.46807ZM17.3652 -1.13238L17.4089 -1.18755L20.543 1.2979L20.4993 1.35306L17.3652 -1.13238ZM18.9322 2.11034H3V-1.88966H18.9322V2.11034ZM3 2.11034C2.44771 2.11034 2 2.55805 2 3.11034H-2C-2 0.348922 0.238566 -1.88966 3 -1.88966V2.11034ZM2 3.11034V13.9354H-2V3.11034H2ZM2 13.9354C2 14.4877 2.44771 14.9354 3 14.9354V18.9354C0.238567 18.9354 -2 16.6968 -2 13.9354H2ZM3 14.9354H11.3247V18.9354H3V14.9354ZM114.758 109.282L10.0143 18.4464L12.635 15.4245L117.379 106.26L114.758 109.282ZM118.068 107.771V108.11H114.068V107.771H118.068ZM116.068 106.11H131.068V110.11H116.068V106.11ZM131.068 106.11C131.621 106.11 132.068 105.663 132.068 105.11H136.068C136.068 107.872 133.83 110.11 131.068 110.11V106.11ZM132.068 105.11V93.1104H136.068V105.11H132.068ZM132.068 93.1104C132.068 92.5581 131.621 92.1104 131.068 92.1104V88.1104C133.83 88.1104 136.068 90.3489 136.068 93.1104H132.068ZM131.068 92.1104H124.821V88.1104H131.068V92.1104ZM20.3644 -1.38944L126.117 88.5871L123.525 91.6336L17.7724 1.65708L20.3644 -1.38944ZM17.0684 0.133824V0.11034H21.0684V0.133824H17.0684ZM19.0684 2.11034H19.0408V-1.88966H19.0684V2.11034Z" fill="black" mask="url(#path-8-inside-3_102_90)"/>
</svg>
