<svg width="62" height="62" viewBox="0 0 62 62" fill="none" xmlns="http://www.w3.org/2000/svg">
<path d="M55.4514 0H6.54914C2.93534 0 0 2.93534 0 6.54914V55.4514C0 59.0648 2.93534 62 6.54914 62H55.4514C59.0648 62 62 59.0647 62 55.4514V6.54914C62 2.93534 59.0647 0 55.4509 0H55.4514ZM60.5474 55.4514C60.5474 58.2606 58.2613 60.5469 55.4519 60.5469L6.54965 60.5474C3.74041 60.5474 1.4541 58.2612 1.4541 55.4519L1.4536 6.54964C1.4536 3.7404 3.73978 1.45409 6.54915 1.45409H55.4514C58.2606 1.45409 60.5469 3.74027 60.5469 6.54964L60.5474 55.4514Z" fill="white"/>
<path d="M31.0011 5.57068C16.9734 5.57068 5.57129 16.9824 5.57129 31.0094C5.57129 45.0364 16.983 56.4392 31.0011 56.4392C45.0287 56.4392 56.4308 45.0275 56.4308 31.0094C56.4308 16.9818 45.0287 5.57068 31.0011 5.57068ZM31.0011 54.9862C17.7773 54.9862 7.02423 44.2332 7.02423 31.0094C7.02423 17.7857 17.7773 7.02363 31.0011 7.02363C44.2248 7.02363 54.9779 17.7862 54.9779 31.0094C54.9779 44.2326 44.2248 54.9862 31.0011 54.9862Z" fill="white"/>
<path d="M51.3152 30.6033C50.4047 29.5377 49.0871 28.9271 47.6824 28.9271H47.6729L37.9368 28.9466C37.7528 28.3171 37.4718 27.7165 37.1328 27.1639C42.1798 25.2262 46.2582 24.7517 49.9981 24.4612C50.5891 24.4127 51.0832 24.0737 51.3346 23.5311C51.5767 23.0081 51.5187 22.3785 51.1796 21.9134L48.5929 18.3196C47.7693 17.1764 46.5001 16.4594 45.1055 16.3529C43.7009 16.2464 42.3347 16.7499 41.3467 17.738L34.4786 24.6357C33.907 24.3257 33.2964 24.0932 32.6478 23.9482C34.8471 19.0076 37.3948 15.7913 39.826 12.943C40.2136 12.4975 40.3201 11.8969 40.1166 11.3444C39.913 10.8018 39.4385 10.4048 38.8574 10.3078L34.4885 9.6007C33.1034 9.37768 31.6987 9.76523 30.6331 10.6758C29.5675 11.5864 28.9569 12.9135 28.9569 14.3182L28.9764 24.0542C28.3469 24.2382 27.7463 24.5192 27.1937 24.8583C25.256 19.8112 24.7814 15.7329 24.491 11.993C24.4425 11.4019 24.1034 10.9078 23.5609 10.6564C23.0278 10.4144 22.4083 10.4724 21.9432 10.8114L18.3493 13.3981C17.2062 14.2217 16.4892 15.4909 16.3827 16.8855C16.2762 18.2806 16.7797 19.6563 17.7678 20.6443L24.6655 27.5125C24.3555 28.084 24.123 28.6946 23.9779 29.3432C19.0374 27.1439 15.8211 24.5962 12.9728 22.165C12.5272 21.7774 11.9267 21.6709 11.3742 21.8745C10.8316 22.078 10.4346 22.5525 10.3376 23.1336L9.63049 27.5025C9.40747 28.8876 9.79501 30.2923 10.7056 31.3579C11.6162 32.4235 12.9338 33.0341 14.3385 33.0341H14.348L24.084 33.0146C24.268 33.6442 24.549 34.2447 24.8881 34.7973C19.841 36.735 15.7627 37.2096 12.0228 37.5C11.4317 37.5485 10.9377 37.8876 10.6862 38.4301C10.4442 38.9532 10.5022 39.5828 10.8412 40.0478L13.428 43.6417C14.2515 44.7848 15.5207 45.5018 16.9153 45.6083C17.0413 45.6178 17.1673 45.6278 17.2933 45.6278C18.5625 45.6278 19.7731 45.1243 20.6741 44.2231L27.5423 37.3254C28.1138 37.6355 28.7244 37.868 29.373 38.013C27.1737 42.9535 24.626 46.1698 22.1948 49.0181C21.8073 49.4637 21.7008 50.0642 21.9043 50.6168C22.1078 51.1593 22.5824 51.5564 23.1634 51.6534L27.5324 52.3604C27.7844 52.3989 28.0459 52.4184 28.2974 52.4184C29.4211 52.4184 30.5157 52.0214 31.3878 51.2753C32.4534 50.3647 33.064 49.0377 33.064 47.633L33.0445 37.897C33.6841 37.7129 34.2746 37.4319 34.8272 37.0929C36.7649 42.1399 37.2395 46.2183 37.53 49.9582C37.5785 50.5492 37.9175 51.0433 38.46 51.2948C38.6731 51.3918 38.9056 51.4403 39.1381 51.4403C39.4676 51.4403 39.8067 51.3338 40.0877 51.1397L43.6815 48.553C44.8247 47.7294 45.5417 46.4602 45.6482 45.0657C45.7642 43.6706 45.2512 42.2948 44.2631 41.3068L37.3654 34.4387C37.6754 33.8671 37.9079 33.2565 38.053 32.6079C42.9935 34.8072 46.2098 37.3549 49.0581 39.7861C49.3586 40.0382 49.7267 40.1737 50.0947 40.1737C50.2787 40.1737 50.4728 40.1447 50.6568 40.0767C51.1993 39.8732 51.5964 39.3986 51.6934 38.8175L52.4004 34.4486C52.6135 33.083 52.2259 31.6688 51.3153 30.6032L51.3152 30.6033ZM31.0009 36.7839C27.8136 36.7839 25.2272 34.1877 25.2272 31.0103C25.2272 27.823 27.8235 25.2267 31.0009 25.2267C34.1783 25.2267 36.7745 27.8229 36.7745 31.0103C36.7745 34.1876 34.1883 36.7839 31.0009 36.7839ZM42.3545 18.7751C43.042 18.0875 43.9916 17.729 44.9703 17.8065C45.9389 17.884 46.8304 18.378 47.402 19.1726L49.9888 22.7665C50.0373 22.8345 50.0273 22.8925 50.0083 22.931C49.9793 22.989 49.9403 23.018 49.8823 23.018C45.9299 23.328 41.6189 23.8221 36.1938 25.9728C36.0293 25.7983 35.8548 25.6433 35.6708 25.4882L42.3545 18.7751ZM30.3808 14.3287C30.3808 13.3501 30.8068 12.43 31.5434 11.8004C32.2895 11.1708 33.2676 10.8993 34.2267 11.0543L38.5956 11.7614C38.6731 11.7709 38.7021 11.8194 38.7216 11.8679C38.7411 11.9259 38.7311 11.9744 38.6926 12.0229C36.1159 15.0357 33.4226 18.4361 31.1074 23.7836C31.0688 23.7836 31.0298 23.7741 30.9913 23.7741C30.7878 23.7741 30.5943 23.7836 30.3908 23.8031L30.3808 14.3287ZM18.7751 19.6472C18.0875 18.9596 17.729 18.0101 17.8065 17.0314C17.884 16.0628 18.3781 15.1712 19.1727 14.5997L22.7665 12.0129C22.8345 11.9644 22.8925 11.9839 22.931 11.9934C22.989 12.0224 23.018 12.0614 23.018 12.1194C23.3281 16.0718 23.8221 20.3828 25.9728 25.8078C25.7983 25.9724 25.6433 26.1469 25.4883 26.3309L18.7751 19.6472ZM14.3287 31.6209C14.3287 31.6209 14.3192 31.6209 14.3287 31.6209C13.3501 31.6209 12.43 31.1949 11.8005 30.4583C11.1709 29.7122 10.8899 28.7341 11.0544 27.775L11.7615 23.4061C11.771 23.3286 11.8195 23.2996 11.868 23.2801C11.926 23.2605 11.9745 23.2705 12.023 23.3091C15.0358 25.8858 18.4362 28.5791 23.7837 30.8943C23.7837 30.9328 23.7742 30.9718 23.7742 31.0103C23.7742 31.2139 23.7837 31.4074 23.8032 31.6014L14.3287 31.6209ZM19.6473 43.2266C18.9597 43.9141 18.0006 44.2727 17.0315 44.1952C16.0629 44.1177 15.1713 43.6236 14.5997 42.829L12.0135 39.2352C11.965 39.1672 11.975 39.1092 11.994 39.0706C12.023 39.0126 12.062 38.9836 12.12 38.9836C16.0724 38.6736 20.3833 38.1796 25.8084 36.0288C25.9729 36.2034 26.1474 36.3584 26.3315 36.5134L19.6473 43.2266ZM31.621 47.673C31.621 48.6516 31.1949 49.5717 30.4583 50.2012C29.7123 50.8308 28.7341 51.1023 27.7751 50.9473L23.4061 50.2402C23.3286 50.2307 23.2996 50.1822 23.2801 50.1337C23.2606 50.0757 23.2706 50.0272 23.3091 49.9787C25.8859 46.9659 28.5791 43.5655 30.8944 38.218C30.9329 38.218 30.9719 38.2275 31.0104 38.2275C31.2139 38.2275 31.4074 38.218 31.611 38.1985L31.621 47.673ZM43.2266 42.3544C43.9142 43.042 44.2727 43.9916 44.1952 44.9702C44.1177 45.9388 43.6237 46.8304 42.8291 47.402L39.2352 49.9882C39.1772 50.0367 39.1092 50.0267 39.0707 50.0077C39.0127 49.9787 38.9837 49.9397 38.9837 49.8817C38.6737 45.9293 38.1796 41.6183 36.0289 36.2022C36.2034 36.0377 36.3584 35.8632 36.5135 35.6792L43.2266 42.3544ZM50.9569 34.2366L50.2499 38.6056C50.2404 38.6831 50.1919 38.7121 50.1434 38.7316C50.0854 38.7511 50.0368 38.7411 49.9883 38.7026C46.9756 36.1258 43.5752 33.4325 38.2277 31.1173C38.2277 31.0788 38.2182 30.6037 38.1987 30.4102L47.6732 30.3907H47.6827C48.6513 30.3907 49.5719 30.8168 50.2109 31.5533C50.841 32.2894 51.112 33.2675 50.957 34.2366L50.9569 34.2366Z" fill="white"/>
<path d="M31.0009 27.4644C29.0537 27.4644 27.4651 29.053 27.4651 31.0002C27.4651 32.9474 29.0537 34.536 31.0009 34.536C32.9481 34.536 34.5368 32.9474 34.5368 31.0002C34.5368 29.053 32.9481 27.4644 31.0009 27.4644ZM31.0009 33.083C29.8578 33.083 28.9182 32.1529 28.9182 31.0002C28.9182 29.8475 29.8483 28.9174 31.0009 28.9174C32.1536 28.9174 33.0837 29.8475 33.0837 31.0002C33.0837 32.1529 32.1441 33.083 31.0009 33.083Z" fill="white"/>
<path d="M7.24674 10.3952C8.98093 10.3952 10.3951 8.98105 10.3951 7.24686C10.3951 5.51267 8.98093 4.09851 7.24674 4.09851C5.51255 4.09851 4.09839 5.51267 4.09839 7.24686C4.09839 8.98054 5.51306 10.3952 7.24674 10.3952ZM7.24674 5.5512C8.17683 5.5512 8.94189 6.31628 8.94189 7.24635C8.94189 8.17641 8.18632 8.9415 7.24674 8.9415C6.30716 8.9415 5.55159 8.18593 5.55159 7.24635C5.55159 6.30677 6.30716 5.5512 7.24674 5.5512Z" fill="white"/>
<path d="M54.755 4.0979C53.0208 4.0979 51.6067 5.51206 51.6067 7.24625C51.6067 8.98044 53.0208 10.3946 54.755 10.3946C56.4892 10.3946 57.9034 8.98044 57.9034 7.24625C57.9034 5.51257 56.4887 4.0979 54.755 4.0979ZM54.755 8.94191C53.8249 8.94191 53.0599 8.18634 53.0599 7.24676C53.0599 6.30717 53.8155 5.55162 54.755 5.55162C55.6946 5.55162 56.4502 6.3167 56.4502 7.24676C56.4502 8.17635 55.6946 8.94191 54.755 8.94191Z" fill="white"/>
<path d="M54.755 51.6051C53.0208 51.6051 51.6067 53.0193 51.6067 54.7535C51.6067 56.4876 53.0208 57.9018 54.755 57.9018C56.4892 57.9018 57.9034 56.4876 57.9034 54.7535C57.9034 53.0198 56.4887 51.6051 54.755 51.6051ZM54.755 56.4491C53.8249 56.4491 53.0599 55.684 53.0599 54.754C53.0599 53.8239 53.8155 53.0588 54.755 53.0588C55.6946 53.0588 56.4502 53.8144 56.4502 54.754C56.4502 55.6935 55.6946 56.4491 54.755 56.4491Z" fill="white"/>
<path d="M7.24674 51.6051C5.51255 51.6051 4.09839 53.0193 4.09839 54.7535C4.09839 56.4876 5.51255 57.9018 7.24674 57.9018C8.98093 57.9018 10.3951 56.4876 10.3951 54.7535C10.3956 53.0198 8.98093 51.6051 7.24674 51.6051ZM7.24674 56.4491C6.30715 56.4491 5.55159 55.684 5.55159 54.754C5.55159 53.8239 6.31668 53.0588 7.24674 53.0588C8.17681 53.0588 8.94189 53.8144 8.94189 54.754C8.94239 55.6936 8.17681 56.4491 7.24674 56.4491Z" fill="white"/>
</svg>
